<svg version="1.1" viewBox="0.0 0.0 960.0 720.0" fill="none" stroke="none" stroke-linecap="square" stroke-miterlimit="10" xmlns:xlink="http://www.w3.org/1999/xlink" xmlns="http://www.w3.org/2000/svg"><clipPath id="p.0"><path d="m0 0l960.0 0l0 720.0l-960.0 0l0 -720.0z" clip-rule="nonzero"/></clipPath><g clip-path="url(#p.0)"><path fill="#000000" fill-opacity="0.0" d="m0 0l960.0 0l0 720.0l-960.0 0z" fill-rule="evenodd"/><path fill="#000000" fill-opacity="0.0" d="m0 27.102362l960.0 0l0 665.7953l-960.0 0z" fill-rule="evenodd"/><path fill="#000000" d="m442.5077 548.10236l-101.3125 -159.375l-46.09375 0l0 159.375l-33.59375 0l0 -373.4375l118.5 0q19.0 0 35.671875 7.171875q16.671875 7.15625 29.171875 19.65625q12.5 12.5 19.65625 29.296875q7.15625 16.796875 7.15625 35.8125l0 30.203125q0 19.0 -7.15625 35.796875q-7.15625 16.796875 -19.65625 29.296875q-12.5 12.5 -29.171875 19.671875q-16.671875 7.15625 -35.671875 7.15625l101.296875 159.375l-38.796875 0zm-4.4375 -281.5q0 -12.5 -4.6875 -23.3125q-4.6875 -10.8125 -12.765625 -19.015625q-8.0625 -8.203125 -18.875 -12.890625q-10.796875 -4.6875 -23.296875 -4.6875l-83.34375 0l0 150.0l83.34375 0q12.5 0 23.296875 -4.6875q10.8125 -4.6875 18.875 -12.890625q8.078125 -8.203125 12.765625 -19.0q4.6875 -10.8125 4.6875 -23.3125l0 -30.203125zm197.91394 -59.90625l0 341.40625l-33.59375 0l0 -341.40625l-89.0625 0l0 -32.03125l211.71875 0l0 32.03125l-89.0625 0z" fill-rule="nonzero"/></g></svg>